<svg width="200" height="28" viewBox="0 0 200 28" fill="none" xmlns="http://www.w3.org/2000/svg">
<path d="M6.69525 27.9162C5.62071 27.9162 4.71147 27.5167 3.96756 26.7176C3.25119 25.9186 2.89301 24.9818 2.89301 23.9073C2.89301 23.5767 2.96189 23.1634 3.09965 22.6674C1.03322 21.8409 0 20.3806 0 18.2866C0 17.1294 0.316853 15.8344 0.95056 14.4017C1.61182 12.969 2.52105 11.5225 3.67826 10.0622C5.11098 8.24371 6.73658 6.60433 8.55505 5.14405C10.4011 3.65622 12.2746 2.48524 14.1757 1.63111C16.1044 0.749433 17.9091 0.308594 19.5898 0.308594C21.243 0.308594 22.593 0.87342 23.64 2.00307C24.687 3.13272 25.2105 4.5379 25.2105 6.2186C25.2105 6.99007 25.1141 7.67888 24.9212 8.28504C24.3977 10.2137 23.5987 12.1148 22.5242 13.9884C21.4772 15.8344 20.2373 17.584 18.8046 19.2371C17.3994 20.8903 15.8978 22.4195 14.2997 23.8246H14.3411C13.0185 24.9818 11.6547 25.9462 10.2495 26.7176C8.84435 27.5167 7.65959 27.9162 6.69525 27.9162ZM6.98455 26.6763C7.78358 26.6763 8.76169 26.3457 9.91889 25.6844C11.1036 25.0232 12.2746 24.1828 13.4318 23.1634C17.8127 19.306 20.8572 14.4568 22.5655 8.61566C22.9512 7.3207 23.1441 6.13594 23.1441 5.0614C23.1441 3.90419 22.8961 2.98118 22.4002 2.29237C21.9318 1.57601 21.1879 1.21783 20.1684 1.21783H20.1271C17.5923 1.21783 15.0161 2.03062 12.3986 3.65622C10.6628 4.75832 9.06476 6.06706 7.60448 7.58245C6.17176 9.07028 4.95945 10.6545 3.96756 12.3352C3.00322 13.9884 2.34196 15.614 1.98378 17.212C1.90112 17.5702 1.85979 17.9284 1.85979 18.2866C1.85979 19.6091 2.39707 20.6423 3.47161 21.3862C3.77469 20.4219 4.16042 19.4162 4.62882 18.3692C5.09721 17.2947 5.67581 16.2064 6.36462 15.1043C7.2463 13.6164 8.18309 12.225 9.17498 10.9301C10.1669 9.63511 11.1312 8.51923 12.068 7.58245C13.0048 6.61811 13.8176 5.94307 14.5064 5.55734C14.6441 5.47468 14.8232 5.4058 15.0437 5.3507C15.2916 5.26804 15.512 5.22671 15.7049 5.22671C16.1733 5.22671 16.2973 5.4058 16.0769 5.76398C15.9667 6.01196 15.6085 6.39769 15.0023 6.92119C13.6247 8.05084 12.2195 9.42846 10.7868 11.0541C9.38162 12.6797 8.1142 14.4155 6.98455 16.2615C5.88245 18.0799 5.08343 19.8984 4.58749 21.7169L5.20742 21.7995C5.73092 21.7995 6.39217 21.6893 7.1912 21.4689C8.01777 21.2485 8.66525 21.0143 9.13365 20.7663C9.29896 20.6836 9.42295 20.6423 9.50561 20.6423C9.64337 20.6423 9.71225 20.7112 9.71225 20.849C9.71225 21.0694 9.49183 21.3036 9.05099 21.5516C8.61015 21.772 8.08665 21.9786 7.4805 22.1715C6.87434 22.3644 6.30952 22.5159 5.78602 22.6261C5.29008 22.7088 4.97322 22.7363 4.83546 22.7088L4.38084 22.6261C4.35329 22.7088 4.33952 22.9016 4.33952 23.2047C4.33952 24.169 4.57371 24.9818 5.0421 25.6431C5.53805 26.3319 6.18553 26.6763 6.98455 26.6763Z" fill="white"/>
<path d="M21.1843 27.6269C20.8812 27.6269 20.6194 27.5304 20.399 27.3376C20.2062 27.1447 20.1235 26.9105 20.151 26.635C20.2062 25.5053 20.4128 24.417 20.771 23.37C21.1567 22.323 21.7078 21.0694 22.4241 19.6091C22.5068 19.4162 22.5757 19.2509 22.6308 19.1132C22.7134 18.9478 22.7823 18.8101 22.8374 18.6999C23.4436 17.4049 24.0635 16.165 24.6972 14.9803C25.3309 13.7955 25.9646 12.6383 26.5983 11.5087L27.1769 10.4755C27.8382 9.2907 28.4168 8.34014 28.9127 7.62378C29.4087 6.87986 29.9046 6.34259 30.4006 6.01196C31.0343 5.62622 31.42 5.43335 31.5578 5.43335C31.7782 5.43335 31.9986 5.62622 32.219 6.01196C32.3568 6.28748 32.0813 6.96252 31.3925 8.03706C31.0343 8.58811 30.5797 9.27693 30.0286 10.1035C29.5051 10.9301 28.8714 11.8669 28.1275 12.9139C27.9897 13.1067 27.7555 13.4511 27.4249 13.9471C27.1218 14.4155 26.7085 15.0354 26.185 15.8069C25.6615 16.5783 25.2069 17.2809 24.8212 17.9146C24.4355 18.5208 24.1186 19.0581 23.8706 19.5264C23.3747 20.4357 22.9063 21.4138 22.4655 22.4608C22.0246 23.4802 21.8042 24.2792 21.8042 24.8578C21.8042 25.3813 22.0108 25.6431 22.4241 25.6431C23.0854 25.6431 24.1462 25.0783 25.6064 23.9486C25.7718 23.9762 25.8544 24.0588 25.8544 24.1966C25.8544 24.3068 25.7167 24.4997 25.4411 24.7752C25.1932 25.0232 24.8763 25.2849 24.4906 25.5604C24.1324 25.8635 23.7053 26.2079 23.2094 26.5937L22.5481 27.0896C22.1073 27.4478 21.6527 27.6269 21.1843 27.6269Z" fill="white"/>
<path d="M35.1851 26.0977C34.4687 26.0977 34.1105 25.5742 34.1105 24.5272C34.1105 23.4527 34.4825 21.8684 35.2264 19.7744C34.3447 20.9041 33.4631 21.9097 32.5814 22.7914C31.7273 23.6455 30.8731 24.3481 30.019 24.8992C29.4128 25.34 28.8618 25.5604 28.3659 25.5604C27.7046 25.5604 27.374 25.1058 27.374 24.1966C27.374 23.7006 27.4566 23.246 27.6219 22.8327C27.8424 22.2266 28.1592 21.524 28.5725 20.725C29.0133 19.926 29.5231 19.1269 30.1017 18.3279C30.6803 17.5289 31.2726 16.8539 31.8788 16.3028C32.0992 16.165 32.237 16.0962 32.2921 16.0962C32.4849 16.0962 32.5814 16.2064 32.5814 16.4268C32.5814 16.5094 32.5401 16.6197 32.4574 16.7574C32.2094 17.0329 31.9201 17.4325 31.5895 17.956C31.2589 18.4795 30.942 19.0443 30.6389 19.6504C30.3359 20.2566 30.0741 20.8214 29.8537 21.3449C29.6608 21.8409 29.5644 22.2128 29.5644 22.4608C29.5644 22.9567 29.7848 23.2047 30.2256 23.2047C30.4185 23.2047 30.6252 23.1358 30.8456 22.9981C31.865 22.3644 32.8018 21.6067 33.6559 20.725C34.5101 19.8157 35.3091 18.5897 36.053 17.0467C36.301 16.8814 36.5765 16.7987 36.8796 16.7987C37.1826 16.7987 37.4306 16.8952 37.6235 17.0881C37.8439 17.2809 37.9541 17.5427 37.9541 17.8733C37.9541 18.1213 37.8852 18.4106 37.7475 18.7412C37.7199 18.8514 37.6648 18.9616 37.5822 19.0718C37.5271 19.182 37.4582 19.306 37.3755 19.4438C37.2929 19.5816 37.224 19.7193 37.1689 19.8571C37.1138 19.9673 37.0587 20.0637 37.0036 20.1464C36.4801 21.0832 36.0668 21.8684 35.7637 22.5021C35.4882 23.1358 35.3504 23.6869 35.3504 24.1553C35.3504 24.7063 35.5984 24.9818 36.0943 24.9818C36.5352 24.9818 36.976 24.8165 37.4168 24.4859C37.6924 24.293 37.9266 24.1966 38.1194 24.1966C38.4225 24.1966 38.3536 24.3895 37.9128 24.7752C37.4995 25.1334 36.9898 25.464 36.3836 25.7671C35.805 25.9875 35.4055 26.0977 35.1851 26.0977Z" fill="white"/>
<path d="M47.7788 25.9737C47.2002 25.8911 46.8007 25.6844 46.5803 25.3538C46.3874 25.0507 46.291 24.6237 46.291 24.0726C46.291 23.9348 46.3047 23.7144 46.3323 23.4113C46.3874 23.1083 46.4425 22.7363 46.4976 22.2955V21.9648C46.4976 21.5791 46.4287 21.3587 46.291 21.3036C46.2634 21.276 46.1945 21.2623 46.0843 21.2623C45.8914 21.2623 45.5333 21.4413 45.0098 21.7995C44.9822 21.8271 44.8307 21.9648 44.5552 22.2128C44.2796 22.4332 43.8801 22.7639 43.3566 23.2047C41.8412 24.5548 40.808 25.1609 40.257 25.0232C39.6784 24.8854 39.3891 24.4997 39.3891 23.866C39.3891 23.2598 39.6095 22.5297 40.0503 21.6755C40.4085 20.9041 40.8493 20.1602 41.3728 19.4438C41.8963 18.6999 42.3096 18.2177 42.6127 17.9973C42.8331 17.8595 43.0122 17.7906 43.15 17.7906C43.2877 17.7906 43.4117 17.8457 43.5219 17.956C43.577 18.0111 43.6046 18.0937 43.6046 18.2039C43.6046 18.3141 43.5357 18.4381 43.3979 18.5759C43.1224 18.8514 42.8607 19.2785 42.6127 19.8571C42.3647 20.4081 42.2407 20.9041 42.2407 21.3449C42.2407 21.4 42.2407 21.4689 42.2407 21.5516C42.2683 21.6342 42.2958 21.7306 42.3234 21.8409C42.4612 21.9235 42.6127 21.9648 42.778 21.9648C43.1086 21.9648 43.5633 21.7995 44.1419 21.4689C44.3623 21.3311 44.6654 21.1383 45.0511 20.8903C45.4368 20.6148 45.9052 20.2704 46.4563 19.8571C46.6767 19.6918 46.9247 19.6091 47.2002 19.6091C47.5033 19.6091 47.7512 19.7193 47.9441 19.9397C48.1645 20.1326 48.2747 20.4081 48.2747 20.7663C48.2747 20.8214 48.261 20.9041 48.2334 21.0143C48.2334 21.0969 48.2196 21.2071 48.1921 21.3449C48.137 21.5653 48.0819 21.772 48.0268 21.9648C47.9717 22.1577 47.9303 22.3506 47.9028 22.5434C47.8752 22.6537 47.8615 22.8052 47.8615 22.9981C47.8615 23.1634 47.8615 23.3562 47.8615 23.5767C47.8615 24.1828 48.1783 24.4859 48.812 24.4859C49.0875 24.4859 49.3631 24.4446 49.6386 24.3619C49.9417 24.2517 50.1621 24.1277 50.2998 23.9899C51.6224 22.8327 52.9173 21.3311 54.1847 19.4851L54.1434 18.9892C54.1159 18.7136 54.171 18.4519 54.3087 18.2039C54.4465 17.9284 54.6256 17.6529 54.846 17.3774C54.9287 17.2671 55.0389 17.212 55.1766 17.212C55.3144 17.212 55.4384 17.2809 55.5486 17.4187C55.6864 17.5289 55.7552 17.6804 55.7552 17.8733C55.7552 18.0111 55.7139 18.1626 55.6313 18.3279C55.4659 18.631 55.2042 19.0718 54.846 19.6504C54.4878 20.2015 54.0745 20.8076 53.6061 21.4689C53.1377 22.1302 52.6694 22.7501 52.201 23.3287C51.7326 23.9073 51.3055 24.3619 50.9198 24.6925V24.7339C50.4514 25.1472 49.9141 25.464 49.308 25.6844C48.7018 25.9324 48.1921 26.0288 47.7788 25.9737Z" fill="white"/>
<path d="M61.7557 26.0151C61.7006 26.0151 61.6455 26.0013 61.5904 25.9737C61.5353 25.9737 61.4802 25.9599 61.4251 25.9324C61.0394 25.7395 60.7914 25.464 60.6812 25.1058C60.571 24.7476 60.5434 24.293 60.5985 23.742C60.6536 23.5216 60.7087 23.1358 60.7638 22.5848C60.8465 22.0337 60.9429 21.5929 61.0531 21.2623L58.9454 23.2874L57.7882 24.4032C56.9891 25.2023 56.3279 25.6018 55.8044 25.6018C55.584 25.6018 55.4049 25.5191 55.2671 25.3538C55.0191 25.0507 54.8952 24.6788 54.8952 24.2379C54.8952 23.6593 55.0467 23.0394 55.3498 22.3781C55.6528 21.7169 56.011 21.0832 56.4243 20.477C56.8376 19.8433 57.2096 19.3198 57.5402 18.9065C58.3668 17.8871 59.1658 17.0881 59.9373 16.5094C60.7363 15.9308 61.5629 15.6415 62.417 15.6415C62.8854 15.6415 63.34 15.7242 63.7808 15.8895C64.2492 16.0548 64.6763 16.3304 65.062 16.7161L65.1033 16.7574C65.1033 16.8401 65.0345 16.9227 64.8967 17.0054C64.8416 17.0605 64.7865 17.1018 64.7314 17.1294C64.7038 17.1569 64.6763 17.1845 64.6487 17.212C64.3181 17.5427 63.9461 18.0937 63.5329 18.8652C63.1196 19.6367 62.7614 20.4495 62.4583 21.3036C62.1552 22.1302 62.0037 22.8465 62.0037 23.4527C62.0037 24.0037 62.1415 24.3757 62.417 24.5685C62.5547 24.6512 62.7063 24.6925 62.8716 24.6925C63.2298 24.6925 63.7257 24.4721 64.3594 24.0313C64.387 24.0037 64.4421 23.9624 64.5247 23.9073C64.635 23.8246 64.7865 23.7144 64.9794 23.5767C65.1998 23.4113 65.3789 23.3287 65.5166 23.3287C65.6544 23.3287 65.7233 23.3838 65.7233 23.494C65.7233 23.6593 65.6131 23.8522 65.3926 24.0726C65.2273 24.2104 65.0345 24.3619 64.814 24.5272C64.6212 24.6925 64.387 24.8579 64.1115 25.0232C63.6982 25.3262 63.2711 25.5604 62.8303 25.7258C62.3894 25.9186 62.0312 26.0151 61.7557 26.0151ZM57.0856 23.37C57.6642 23.37 58.7387 22.5159 60.3092 20.8076C60.7225 20.3392 61.0945 19.8984 61.4251 19.4851C61.7557 19.0443 62.0588 18.6172 62.3343 18.2039C62.8303 17.4049 62.9956 16.8539 62.8303 16.5508C62.7476 16.3855 62.5823 16.3028 62.3343 16.3028C62.0312 16.3028 61.618 16.4681 61.0945 16.7987C60.571 17.1018 60.0337 17.5013 59.4826 17.9973C58.9591 18.4932 58.477 18.9892 58.0361 19.4851C57.7331 19.8709 57.43 20.4081 57.1269 21.0969C56.8238 21.7857 56.6723 22.3506 56.6723 22.7914C56.6723 23.1771 56.8101 23.37 57.0856 23.37Z" fill="white"/>
<path d="M74.2974 27.9988C73.8842 27.9988 73.5811 27.7922 73.3882 27.3789C73.3607 27.3513 73.3469 27.2687 73.3469 27.1309C73.3469 26.9932 73.4158 26.6763 73.5535 26.1804C73.6086 26.0426 73.65 25.9048 73.6775 25.7671C73.7326 25.6293 73.7877 25.4916 73.8428 25.3538C73.8979 25.216 73.953 25.0645 74.0081 24.8992C74.0632 24.7063 74.1184 24.5134 74.1735 24.3206C74.2837 23.9073 74.3388 23.5629 74.3388 23.2874C74.3388 22.9016 74.2148 22.7088 73.9668 22.7088C73.8842 22.7088 73.7326 22.7776 73.5122 22.9154C73.154 23.1909 72.7683 23.4527 72.355 23.7006C71.9693 23.9486 71.556 24.1828 71.1151 24.4032L69.7926 25.1058L68.9247 25.6018C68.8421 25.6293 68.6492 25.7533 68.3461 25.9737C68.0706 26.139 67.7813 26.2217 67.4782 26.2217C67.12 26.2217 66.7205 26.0288 66.2797 25.6431C65.9491 25.3125 65.7837 24.9681 65.7837 24.6099C65.7837 24.3068 65.9353 23.8797 66.2383 23.3287C66.4588 22.9705 66.8307 22.5297 67.3542 22.0062C67.5746 21.7857 67.7537 21.5929 67.8915 21.4276C68.0568 21.2347 68.1946 21.0832 68.3048 20.9729C69.462 19.43 71.2529 18.0662 73.6775 16.8814C74.3663 16.5232 74.9863 16.3441 75.5373 16.3441C76.1435 16.3441 76.6256 16.5921 76.9838 17.0881C77.1491 16.7574 77.4109 16.289 77.7691 15.6829C78.1548 15.0492 78.5681 14.3604 79.0089 13.6164C79.4773 12.8725 79.9182 12.1699 80.3314 11.5087C80.7723 10.8474 81.1167 10.3377 81.3647 9.97951C82.1086 8.96007 82.7147 8.1886 83.1831 7.6651C83.6515 7.16916 84.0786 6.92119 84.4643 6.92119C84.6021 6.92119 84.7812 6.99007 85.0016 7.12783C85.1945 7.29315 85.2909 7.51357 85.2909 7.78909C85.2909 8.20238 85.1118 8.68455 84.7536 9.2356C84.3954 9.78665 83.8995 10.4617 83.2658 11.2607C83.2107 11.3434 83.128 11.4536 83.0178 11.5913C82.9076 11.7015 82.7836 11.8531 82.6458 12.0459C82.3428 12.4868 82.0259 12.9552 81.6953 13.4511C81.3647 13.9195 81.0065 14.3879 80.6207 14.8563C80.0697 15.5727 79.4911 16.3579 78.8849 17.212C78.2788 18.0386 77.714 18.9065 77.1905 19.8157C76.7221 20.6423 76.3225 21.4964 75.9919 22.3781C75.6613 23.2323 75.3858 24.1002 75.1654 24.9818C75.1378 25.1747 75.1102 25.3262 75.0827 25.4365C75.0827 25.5742 75.0827 25.6706 75.0827 25.7258L75.124 26.3457C75.1516 26.4283 75.1654 26.6212 75.1654 26.9243C75.1654 27.6406 74.876 27.9988 74.2974 27.9988ZM68.6354 24.4446C68.9385 24.4446 69.214 24.3895 69.462 24.2792C70.509 23.9211 71.5009 23.4664 72.4377 22.9154C73.3744 22.3644 74.3663 21.6204 75.4133 20.6836C75.5511 20.2979 75.7164 19.8846 75.9093 19.4438C76.1021 19.0029 76.3088 18.5208 76.5292 17.9973C76.1986 17.3085 75.7164 16.9641 75.0827 16.9641C74.6694 16.9641 74.2286 17.1018 73.7602 17.3774C73.2918 17.6529 72.7683 18.0248 72.1897 18.4932C71.6386 18.9341 71.0738 19.43 70.4952 19.9811C69.9442 20.5321 69.462 21.0694 69.0487 21.5929C68.6354 22.0888 68.3461 22.5021 68.1808 22.8327C68.0155 23.1083 67.9328 23.4251 67.9328 23.7833C67.9328 24.2241 68.167 24.4446 68.6354 24.4446Z" fill="white"/>
<path d="M85.5686 26.0151C85.5135 26.0151 85.4584 26.0013 85.4033 25.9737C85.3482 25.9737 85.2931 25.9599 85.238 25.9324C84.8523 25.7395 84.6043 25.464 84.4941 25.1058C84.3839 24.7476 84.3563 24.293 84.4114 23.742C84.4665 23.5216 84.5216 23.1358 84.5767 22.5848C84.6594 22.0337 84.7558 21.5929 84.866 21.2623L82.7583 23.2874L81.6011 24.4032C80.802 25.2023 80.1408 25.6018 79.6173 25.6018C79.3969 25.6018 79.2178 25.5191 79.08 25.3538C78.832 25.0507 78.7081 24.6788 78.7081 24.2379C78.7081 23.6593 78.8596 23.0394 79.1627 22.3781C79.4658 21.7169 79.8239 21.0832 80.2372 20.477C80.6505 19.8433 81.0225 19.3198 81.3531 18.9065C82.1797 17.8871 82.9787 17.0881 83.7502 16.5094C84.5492 15.9308 85.3758 15.6415 86.2299 15.6415C86.6983 15.6415 87.1529 15.7242 87.5937 15.8895C88.0621 16.0548 88.4892 16.3304 88.8749 16.7161L88.9163 16.7574C88.9163 16.8401 88.8474 16.9227 88.7096 17.0054C88.6545 17.0605 88.5994 17.1018 88.5443 17.1294C88.5167 17.1569 88.4892 17.1845 88.4616 17.212C88.131 17.5427 87.759 18.0937 87.3458 18.8652C86.9325 19.6367 86.5743 20.4495 86.2712 21.3036C85.9681 22.1302 85.8166 22.8465 85.8166 23.4527C85.8166 24.0037 85.9544 24.3757 86.2299 24.5685C86.3677 24.6512 86.5192 24.6925 86.6845 24.6925C87.0427 24.6925 87.5386 24.4721 88.1723 24.0313C88.1999 24.0037 88.255 23.9624 88.3377 23.9073C88.4479 23.8246 88.5994 23.7144 88.7923 23.5767C89.0127 23.4113 89.1918 23.3287 89.3295 23.3287C89.4673 23.3287 89.5362 23.3838 89.5362 23.494C89.5362 23.6593 89.426 23.8522 89.2056 24.0726C89.0402 24.2104 88.8474 24.3619 88.627 24.5272C88.4341 24.6925 88.1999 24.8579 87.9244 25.0232C87.5111 25.3262 87.084 25.5604 86.6432 25.7258C86.2023 25.9186 85.8442 26.0151 85.5686 26.0151ZM80.8985 23.37C81.4771 23.37 82.5516 22.5159 84.1221 20.8076C84.5354 20.3392 84.9074 19.8984 85.238 19.4851C85.5686 19.0443 85.8717 18.6172 86.1472 18.2039C86.6432 17.4049 86.8085 16.8539 86.6432 16.5508C86.5605 16.3855 86.3952 16.3028 86.1472 16.3028C85.8442 16.3028 85.4309 16.4681 84.9074 16.7987C84.3839 17.1018 83.8466 17.5013 83.2955 17.9973C82.772 18.4932 82.2899 18.9892 81.849 19.4851C81.546 19.8709 81.2429 20.4081 80.9398 21.0969C80.6367 21.7857 80.4852 22.3506 80.4852 22.7914C80.4852 23.1771 80.623 23.37 80.8985 23.37Z" fill="white"/>
<path d="M91.1671 25.7671C90.8089 25.7671 90.6299 25.4502 90.6299 24.8165C90.6299 24.293 90.7538 23.7833 91.0018 23.2874C91.6355 22.0751 92.2141 20.8765 92.7376 19.6918C93.0958 18.9754 93.4264 18.2866 93.7295 17.6253C94.0601 16.9641 94.3632 16.3579 94.6387 15.8069C94.8041 15.6415 94.9694 15.5589 95.1347 15.5589C95.4929 15.5589 95.6031 15.7242 95.4653 16.0548C95.4102 16.2477 95.3276 16.4819 95.2173 16.7574C95.1347 17.0054 95.0245 17.3085 94.8867 17.6667C94.4459 18.8239 94.1841 19.6367 94.1015 20.105C94.8729 19.4162 95.6582 18.7825 96.4572 18.2039C97.2838 17.5978 98.0552 17.1018 98.7716 16.7161C99.488 16.3304 100.094 16.1375 100.59 16.1375C101.031 16.1375 101.251 16.3166 101.251 16.6748C101.251 16.9778 101.114 17.3085 100.838 17.6667C100.563 17.9973 100.287 18.1626 100.011 18.1626C99.8737 18.1626 99.7635 18.1213 99.6808 18.0386C99.5982 18.0111 99.4329 17.9973 99.1849 17.9973C98.3032 17.9973 97.3802 18.4243 96.4159 19.2785C95.3964 20.1326 94.4734 21.1658 93.6469 22.3781C92.8203 23.5629 92.2141 24.5961 91.8284 25.4778C91.6355 25.6706 91.4151 25.7671 91.1671 25.7671Z" fill="white"/>
<path d="M101.736 25.3538C101.158 25.3538 100.648 25.2023 100.207 24.8992C99.4909 24.3481 99.1327 23.5216 99.1327 22.4195C99.1327 21.3174 99.5184 20.1464 100.29 18.9065C101.061 17.6667 102.232 16.5232 103.803 15.4762C104.078 15.2834 104.45 15.1869 104.919 15.1869C105.525 15.1869 106.062 15.3522 106.531 15.6829C107.026 16.0135 107.219 16.4406 107.109 16.9641C106.916 17.8182 106.489 18.5759 105.828 19.2371C105.194 19.8984 104.437 20.4908 103.555 21.0143C102.701 21.5102 101.819 21.9924 100.91 22.4608C100.882 22.5434 100.855 22.6261 100.827 22.7088C100.827 22.7914 100.827 22.8741 100.827 22.9567C100.827 23.3425 100.951 23.6869 101.199 23.9899C101.475 24.2655 101.847 24.4032 102.315 24.4032C102.673 24.4032 102.976 24.3481 103.224 24.2379C103.665 24.0726 104.023 23.9211 104.299 23.7833C104.602 23.6455 104.946 23.4389 105.332 23.1634C105.718 22.8878 106.241 22.4746 106.902 21.9235C107.206 21.7031 107.385 21.5929 107.44 21.5929C107.605 21.5929 107.66 21.7169 107.605 21.9648C107.33 22.4057 106.847 22.8878 106.159 23.4113C105.497 23.9348 104.753 24.3895 103.927 24.7752C103.128 25.1609 102.398 25.3538 101.736 25.3538ZM101.158 21.3449C101.378 21.3449 101.833 21.1245 102.522 20.6836C103.21 20.2428 103.858 19.7606 104.464 19.2371C105.511 18.2728 106.035 17.5289 106.035 17.0054C106.035 16.8676 105.993 16.7436 105.911 16.6334C105.828 16.4957 105.704 16.4268 105.539 16.4268C105.015 16.4268 104.133 17.0467 102.894 18.2866C102.039 19.1132 101.461 20.1326 101.158 21.3449Z" fill="white"/>
<path d="M122.814 27.9162C121.739 27.9162 120.83 27.5167 120.086 26.7176C119.369 25.9186 119.011 24.9818 119.011 23.9073C119.011 23.5767 119.08 23.1634 119.218 22.6674C117.151 21.8409 116.118 20.3806 116.118 18.2866C116.118 17.1294 116.435 15.8344 117.069 14.4017C117.73 12.969 118.639 11.5225 119.797 10.0622C121.229 8.24371 122.855 6.60433 124.673 5.14405C126.519 3.65622 128.393 2.48524 130.294 1.63111C132.223 0.749433 134.027 0.308594 135.708 0.308594C137.361 0.308594 138.711 0.87342 139.758 2.00307C140.805 3.13272 141.329 4.5379 141.329 6.2186C141.329 6.99007 141.232 7.67888 141.039 8.28504C140.516 10.2137 139.717 12.1148 138.642 13.9884C137.595 15.8344 136.356 17.584 134.923 19.2371C133.518 20.8903 132.016 22.4195 130.418 23.8246H130.459C129.137 24.9818 127.773 25.9462 126.368 26.7176C124.963 27.5167 123.778 27.9162 122.814 27.9162ZM123.103 26.6763C123.902 26.6763 124.88 26.3457 126.037 25.6844C127.222 25.0232 128.393 24.1828 129.55 23.1634C133.931 19.306 136.975 14.4568 138.684 8.61566C139.069 7.3207 139.262 6.13594 139.262 5.0614C139.262 3.90419 139.014 2.98118 138.518 2.29237C138.05 1.57601 137.306 1.21783 136.287 1.21783H136.245C133.711 1.21783 131.134 2.03062 128.517 3.65622C126.781 4.75832 125.183 6.06706 123.723 7.58245C122.29 9.07028 121.078 10.6545 120.086 12.3352C119.121 13.9884 118.46 15.614 118.102 17.212C118.019 17.5702 117.978 17.9284 117.978 18.2866C117.978 19.6091 118.515 20.6423 119.59 21.3862C119.893 20.4219 120.279 19.4162 120.747 18.3692C121.215 17.2947 121.794 16.2064 122.483 15.1043C123.365 13.6164 124.301 12.225 125.293 10.9301C126.285 9.63511 127.249 8.51923 128.186 7.58245C129.123 6.61811 129.936 5.94307 130.625 5.55734C130.762 5.47468 130.941 5.4058 131.162 5.3507C131.41 5.26804 131.63 5.22671 131.823 5.22671C132.292 5.22671 132.416 5.4058 132.195 5.76398C132.085 6.01196 131.727 6.39769 131.121 6.92119C129.743 8.05084 128.338 9.42846 126.905 11.0541C125.5 12.6797 124.232 14.4155 123.103 16.2615C122.001 18.0799 121.202 19.8984 120.706 21.7169L121.326 21.7995C121.849 21.7995 122.51 21.6893 123.309 21.4689C124.136 21.2485 124.784 21.0143 125.252 20.7663C125.417 20.6836 125.541 20.6423 125.624 20.6423C125.762 20.6423 125.831 20.7112 125.831 20.849C125.831 21.0694 125.61 21.3036 125.169 21.5516C124.728 21.772 124.205 21.9786 123.599 22.1715C122.993 22.3644 122.428 22.5159 121.904 22.6261C121.408 22.7088 121.091 22.7363 120.954 22.7088L120.499 22.6261C120.472 22.7088 120.458 22.9016 120.458 23.2047C120.458 24.169 120.692 24.9818 121.16 25.6431C121.656 26.3319 122.304 26.6763 123.103 26.6763Z" fill="white"/>
<path d="M145.775 25.9737C145.196 25.8911 144.797 25.6844 144.576 25.3538C144.384 25.0507 144.287 24.6237 144.287 24.0726C144.287 23.9348 144.301 23.7144 144.328 23.4113C144.384 23.1083 144.439 22.7363 144.494 22.2955V21.9648C144.494 21.5791 144.425 21.3587 144.287 21.3036C144.26 21.276 144.191 21.2623 144.08 21.2623C143.888 21.2623 143.529 21.4413 143.006 21.7995C142.978 21.8271 142.827 21.9648 142.551 22.2128C142.276 22.4332 141.876 22.7639 141.353 23.2047C139.837 24.5548 138.804 25.1609 138.253 25.0232C137.674 24.8854 137.385 24.4997 137.385 23.866C137.385 23.2598 137.606 22.5297 138.046 21.6755C138.405 20.9041 138.845 20.1602 139.369 19.4438C139.892 18.6999 140.306 18.2177 140.609 17.9973C140.829 17.8595 141.008 17.7906 141.146 17.7906C141.284 17.7906 141.408 17.8457 141.518 17.956C141.573 18.0111 141.601 18.0937 141.601 18.2039C141.601 18.3141 141.532 18.4381 141.394 18.5759C141.119 18.8514 140.857 19.2785 140.609 19.8571C140.361 20.4081 140.237 20.9041 140.237 21.3449C140.237 21.4 140.237 21.4689 140.237 21.5516C140.264 21.6342 140.292 21.7306 140.32 21.8409C140.457 21.9235 140.609 21.9648 140.774 21.9648C141.105 21.9648 141.559 21.7995 142.138 21.4689C142.358 21.3311 142.661 21.1383 143.047 20.8903C143.433 20.6148 143.901 20.2704 144.452 19.8571C144.673 19.6918 144.921 19.6091 145.196 19.6091C145.499 19.6091 145.747 19.7193 145.94 19.9397C146.161 20.1326 146.271 20.4081 146.271 20.7663C146.271 20.8214 146.257 20.9041 146.23 21.0143C146.23 21.0969 146.216 21.2071 146.188 21.3449C146.133 21.5653 146.078 21.772 146.023 21.9648C145.968 22.1577 145.926 22.3506 145.899 22.5434C145.871 22.6537 145.858 22.8052 145.858 22.9981C145.858 23.1634 145.858 23.3562 145.858 23.5767C145.858 24.1828 146.174 24.4859 146.808 24.4859C147.084 24.4859 147.359 24.4446 147.635 24.3619C147.938 24.2517 148.158 24.1277 148.296 23.9899C149.618 22.8327 150.913 21.3311 152.181 19.4851L152.14 18.9892C152.112 18.7136 152.167 18.4519 152.305 18.2039C152.443 17.9284 152.622 17.6529 152.842 17.3774C152.925 17.2671 153.035 17.212 153.173 17.212C153.311 17.212 153.435 17.2809 153.545 17.4187C153.682 17.5289 153.751 17.6804 153.751 17.8733C153.751 18.0111 153.71 18.1626 153.627 18.3279C153.462 18.631 153.2 19.0718 152.842 19.6504C152.484 20.2015 152.071 20.8076 151.602 21.4689C151.134 22.1302 150.665 22.7501 150.197 23.3287C149.729 23.9073 149.302 24.3619 148.916 24.6925V24.7339C148.448 25.1472 147.91 25.464 147.304 25.6844C146.698 25.9324 146.188 26.0288 145.775 25.9737Z" fill="white"/>
<path d="M154.586 25.6018C153.511 25.6018 152.974 25.1196 152.974 24.1553C152.974 24.1002 152.974 24.0037 152.974 23.866C153.001 23.7282 153.029 23.5629 153.057 23.37C153.332 22.2404 153.883 21.152 154.71 20.105C155.564 19.0305 156.542 18.0937 157.644 17.2947C158.057 16.9641 158.719 16.7987 159.628 16.7987C160.151 16.7987 160.606 16.8814 160.992 17.0467C161.405 17.1845 161.694 17.4049 161.86 17.708C162.025 17.9835 162.108 18.3004 162.108 18.6585C162.108 18.7136 162.094 18.7963 162.066 18.9065C162.066 19.0167 162.052 19.1407 162.025 19.2785C162.08 19.2509 162.163 19.2371 162.273 19.2371C162.411 19.2371 162.576 19.2234 162.769 19.1958C162.962 19.1683 163.141 19.1407 163.306 19.1132C163.499 19.0856 163.692 19.0718 163.885 19.0718H164.05C164.353 19.0718 164.381 19.1958 164.133 19.4438C163.912 19.6642 163.609 19.802 163.223 19.8571L161.818 20.0224C161.543 20.7939 161.061 21.5653 160.372 22.3368C159.711 23.1083 158.967 23.7833 158.14 24.3619C157.341 24.913 156.583 25.2711 155.867 25.4365C155.454 25.5467 155.027 25.6018 154.586 25.6018ZM159.876 19.4438C160.041 19.4438 160.234 19.4438 160.454 19.4438C160.702 19.4162 160.978 19.3887 161.281 19.3611C161.309 19.306 161.322 19.182 161.322 18.9892C161.322 18.4932 161.116 18.1488 160.702 17.956C160.482 17.8182 160.206 17.7493 159.876 17.7493C159.463 17.7493 159.035 17.8871 158.595 18.1626C158.181 18.4106 157.741 18.7412 157.272 19.1545C157.851 19.3474 158.719 19.4438 159.876 19.4438ZM155.826 24.1553C156.101 24.1553 156.487 24.0313 156.983 23.7833C157.506 23.5078 158.044 23.1496 158.595 22.7088C159.146 22.2679 159.642 21.7995 160.082 21.3036C160.22 21.1658 160.358 21.0005 160.496 20.8076C160.634 20.5872 160.785 20.3668 160.95 20.1464L159.958 20.2704C158.416 20.4908 157.038 20.6148 155.826 20.6423C155.219 21.6342 154.848 22.4608 154.71 23.122C154.682 23.4802 154.779 23.742 154.999 23.9073C155.219 24.0726 155.495 24.1553 155.826 24.1553Z" fill="white"/>
<path d="M163.174 27.6269C162.871 27.6269 162.609 27.5304 162.389 27.3376C162.196 27.1447 162.113 26.9105 162.141 26.635C162.196 25.5053 162.402 24.417 162.761 23.37C163.146 22.323 163.697 21.0694 164.414 19.6091C164.496 19.4162 164.565 19.2509 164.62 19.1132C164.703 18.9478 164.772 18.8101 164.827 18.6999C165.433 17.4049 166.053 16.165 166.687 14.9803C167.32 13.7955 167.954 12.6383 168.588 11.5087L169.166 10.4755C169.828 9.2907 170.406 8.34014 170.902 7.62378C171.398 6.87986 171.894 6.34259 172.39 6.01196C173.024 5.62622 173.41 5.43335 173.547 5.43335C173.768 5.43335 173.988 5.62622 174.209 6.01196C174.346 6.28748 174.071 6.96252 173.382 8.03706C173.024 8.58811 172.569 9.27693 172.018 10.1035C171.495 10.9301 170.861 11.8669 170.117 12.9139C169.979 13.1067 169.745 13.4511 169.414 13.9471C169.111 14.4155 168.698 15.0354 168.175 15.8069C167.651 16.5783 167.196 17.2809 166.811 17.9146C166.425 18.5208 166.108 19.0581 165.86 19.5264C165.364 20.4357 164.896 21.4138 164.455 22.4608C164.014 23.4802 163.794 24.2792 163.794 24.8578C163.794 25.3813 164 25.6431 164.414 25.6431C165.075 25.6431 166.136 25.0783 167.596 23.9486C167.761 23.9762 167.844 24.0588 167.844 24.1966C167.844 24.3068 167.706 24.4997 167.431 24.7752C167.183 25.0232 166.866 25.2849 166.48 25.5604C166.122 25.8635 165.695 26.2079 165.199 26.5937L164.538 27.0896C164.097 27.4478 163.642 27.6269 163.174 27.6269Z" fill="white"/>
<path d="M176.017 26.0151C175.962 26.0151 175.907 26.0013 175.852 25.9737C175.797 25.9737 175.742 25.9599 175.687 25.9324C175.301 25.7395 175.053 25.464 174.943 25.1058C174.833 24.7476 174.805 24.293 174.86 23.742C174.915 23.5216 174.97 23.1358 175.026 22.5848C175.108 22.0337 175.205 21.5929 175.315 21.2623L173.207 23.2874L172.05 24.4032C171.251 25.2023 170.59 25.6018 170.066 25.6018C169.846 25.6018 169.667 25.5191 169.529 25.3538C169.281 25.0507 169.157 24.6788 169.157 24.2379C169.157 23.6593 169.308 23.0394 169.611 22.3781C169.915 21.7169 170.273 21.0832 170.686 20.477C171.099 19.8433 171.471 19.3198 171.802 18.9065C172.628 17.8871 173.427 17.0881 174.199 16.5094C174.998 15.9308 175.825 15.6415 176.679 15.6415C177.147 15.6415 177.602 15.7242 178.043 15.8895C178.511 16.0548 178.938 16.3304 179.324 16.7161L179.365 16.7574C179.365 16.8401 179.296 16.9227 179.158 17.0054C179.103 17.0605 179.048 17.1018 178.993 17.1294C178.966 17.1569 178.938 17.1845 178.91 17.212C178.58 17.5427 178.208 18.0937 177.795 18.8652C177.381 19.6367 177.023 20.4495 176.72 21.3036C176.417 22.1302 176.265 22.8465 176.265 23.4527C176.265 24.0037 176.403 24.3757 176.679 24.5685C176.816 24.6512 176.968 24.6925 177.133 24.6925C177.491 24.6925 177.987 24.4721 178.621 24.0313C178.649 24.0037 178.704 23.9624 178.786 23.9073C178.897 23.8246 179.048 23.7144 179.241 23.5767C179.461 23.4113 179.641 23.3287 179.778 23.3287C179.916 23.3287 179.985 23.3838 179.985 23.494C179.985 23.6593 179.875 23.8522 179.654 24.0726C179.489 24.2104 179.296 24.3619 179.076 24.5272C178.883 24.6925 178.649 24.8579 178.373 25.0232C177.96 25.3262 177.533 25.5604 177.092 25.7258C176.651 25.9186 176.293 26.0151 176.017 26.0151ZM171.347 23.37C171.926 23.37 173 22.5159 174.571 20.8076C174.984 20.3392 175.356 19.8984 175.687 19.4851C176.017 19.0443 176.32 18.6172 176.596 18.2039C177.092 17.4049 177.257 16.8539 177.092 16.5508C177.009 16.3855 176.844 16.3028 176.596 16.3028C176.293 16.3028 175.88 16.4681 175.356 16.7987C174.833 17.1018 174.295 17.5013 173.744 17.9973C173.221 18.4932 172.739 18.9892 172.298 19.4851C171.995 19.8709 171.692 20.4081 171.389 21.0969C171.086 21.7857 170.934 22.3506 170.934 22.7914C170.934 23.1771 171.072 23.37 171.347 23.37Z" fill="white"/>
<path d="M181.699 26.759C181.065 26.759 180.748 26.4146 180.748 25.7258C180.748 25.2023 180.886 24.6512 181.161 24.0726L184.096 17.6667C184.316 17.1983 184.619 16.5783 185.005 15.8069C185.391 15.0078 185.859 14.0435 186.41 12.9139C186.465 12.8036 186.52 12.6797 186.575 12.5419C186.658 12.4041 186.741 12.2664 186.823 12.1286C186.989 11.8255 187.154 11.4949 187.319 11.1367L187.815 10.1035C188.339 9.0014 188.793 8.1335 189.179 7.49979C189.592 6.83853 190.047 6.34259 190.543 6.01196C191.177 5.62622 191.576 5.43335 191.741 5.43335C191.934 5.43335 192.141 5.62622 192.361 6.01196C192.361 6.03951 192.361 6.05328 192.361 6.05328C192.389 6.05328 192.403 6.06706 192.403 6.09461C192.403 6.25993 192.279 6.53545 192.031 6.92119C191.865 7.16916 191.631 7.51357 191.328 7.95441C191.053 8.36769 190.708 8.87741 190.295 9.48357C188.78 11.6602 187.485 13.6302 186.41 15.3936C185.363 17.1569 184.481 18.9341 183.765 20.725C184.454 20.1188 185.184 19.5127 185.955 18.9065C186.754 18.3004 187.43 17.832 187.981 17.5013C188.752 17.0605 189.427 16.8401 190.006 16.8401C190.887 16.8401 191.328 17.4187 191.328 18.5759C191.328 19.8433 190.956 21.0005 190.212 22.0475C189.468 23.0669 188.435 23.9624 187.113 24.7339C185.818 25.4778 184.344 26.0839 182.69 26.5523C182.332 26.6901 182.002 26.759 181.699 26.759ZM183.145 25.2711C184.165 25.2711 185.184 24.9267 186.203 24.2379C187.223 23.5767 188.049 22.7776 188.683 21.8409C189.344 20.8765 189.675 20.0224 189.675 19.2785C189.675 18.8101 189.523 18.4243 189.22 18.1213C188.972 18.0662 188.49 18.2453 187.774 18.6585C187.058 19.0443 186.286 19.5678 185.459 20.229C184.66 20.8627 183.944 21.524 183.31 22.2128C182.759 23.8935 182.539 24.8992 182.649 25.2298L183.145 25.2711Z" fill="white"/>
<path d="M195.983 15.8482C195.625 15.8482 195.446 15.7655 195.446 15.6002C195.446 15.4625 195.542 15.2696 195.735 15.0216C195.956 14.7461 196.204 14.5119 196.479 14.319C197.085 13.9333 197.554 13.6027 197.884 13.3271C198.243 13.0516 198.67 12.5832 199.166 11.922C199.193 11.9771 199.207 12.0873 199.207 12.2526C199.207 12.6108 199.055 13.0516 198.752 13.5751C198.477 14.0711 198.16 14.5257 197.802 14.939C197.443 15.3522 197.127 15.614 196.851 15.7242C196.603 15.8069 196.314 15.8482 195.983 15.8482ZM192.305 25.9737C192.085 25.9737 191.878 25.8911 191.685 25.7258C191.492 25.5604 191.396 25.34 191.396 25.0645C191.396 24.4859 191.795 23.4251 192.594 21.8822L193.049 20.9729C193.104 20.9178 193.173 20.7801 193.256 20.5597C193.366 20.3392 193.517 20.0499 193.71 19.6918C193.903 19.306 194.055 18.9616 194.165 18.6585C194.275 18.3555 194.358 18.0662 194.413 17.7906C194.413 17.7631 194.468 17.708 194.578 17.6253C194.688 17.5427 194.798 17.4738 194.909 17.4187L195.157 17.3774C195.377 17.3774 195.556 17.4187 195.694 17.5013C195.859 17.584 195.914 17.6942 195.859 17.832C195.666 18.2453 195.501 18.6034 195.363 18.9065C195.226 19.2096 195.115 19.4713 195.033 19.6918H194.991C194.688 20.3806 194.427 21.0418 194.206 21.6755C194.013 22.2817 193.931 22.8603 193.958 23.4113L193.999 24.5272C193.972 24.8027 193.875 25.0369 193.71 25.2298C193.6 25.3125 193.448 25.4089 193.256 25.5191C193.063 25.6569 192.815 25.7946 192.512 25.9324C192.484 25.9599 192.415 25.9737 192.305 25.9737Z" fill="white"/>
</svg>
